<svg id="checkbox-circle" viewBox="0 0 80 80" fill="none" xmlns="http://www.w3.org/2000/svg">
	<path d="M40 7.5C49.7709 7.5 58.5279 11.8179 64.4857 18.6426L40 43.1315L31.7676 34.8991C30.7913 33.9228 29.2087 33.9228 28.2324 34.8991C27.2561 35.8754 27.2561 37.4579 28.2324 38.4342L38.2324 48.4342C39.2087 49.4106 40.7913 49.4106 41.7676 48.4342L67.5033 22.6953C70.6632 27.7071 72.5 33.6374 72.5 40C72.5 57.9493 57.9493 72.5 40 72.5C22.0507 72.5 7.5 57.9493 7.5 40C7.5 22.0507 22.0507 7.5 40 7.5ZM74.8991 8.23242C75.8754 7.25611 77.4579 7.25611 78.4342 8.23242C79.4106 9.20873 79.4106 10.7913 78.4342 11.7676L67.5033 22.6953C66.6015 21.2651 65.5928 19.9108 64.4857 18.6426L74.8991 8.23242Z" fill="#C7D1BB"/>
</svg>