<svg id="logo" viewBox="0 0 330 140" xmlns="http://www.w3.org/2000/svg">
    <g clip-path="url(#clip0_88_313)">
        <path d="M65.34 72.51L91.78 45.4L104.01 57.64L89.15 72.51H104.66L162.13 15.04V72.51H235.29L217.41 54.63L234.74 37.29L269.96 72.51H280.03L233.73 26.21L211.3 48.64L162.66 0L111.7 50.97L92.08 31.35L51 72.51H65.34Z"/>
        <path d="M33.19 130.3V138.55H0V93.5299H32.74V101.78H11.21V111.22H31.74V119.47H11.21V130.3H33.19Z"/>
        <path d="M83.7201 124.82V134.65C78.0901 137.64 72.1901 139.13 66.0301 139.13C58.0401 139.13 51.6701 136.92 46.9401 132.51C42.2001 128.1 39.8301 122.65 39.8301 116.19C39.8301 109.73 42.3301 104.23 47.3201 99.72C52.3101 95.21 58.8401 92.95 66.9001 92.95C73.3201 92.95 78.7601 94.27 83.2101 96.91V106.93C77.7501 103.86 72.5901 102.32 67.7101 102.32C62.8301 102.32 59.0001 103.6 55.9601 106.17C52.9201 108.74 51.4001 112.01 51.4001 115.98C51.4001 119.95 52.9001 123.27 55.9001 125.87C58.9001 128.47 62.7401 129.77 67.4201 129.77C69.7401 129.77 71.9701 129.46 74.1201 128.85C76.2701 128.24 79.4701 126.89 83.7201 124.81V124.82Z"/>
        <path d="M116.53 92.9499C124.2 92.9499 130.41 95.2699 135.16 99.8899C139.91 104.52 142.28 109.91 142.28 116.05C142.28 122.19 139.87 127.68 135.06 132.26C130.25 136.84 124.07 139.12 116.53 139.12C108.99 139.12 102.69 136.84 97.9 132.29C93.11 127.74 90.71 122.32 90.71 116.05C90.71 109.78 93.09 104.49 97.85 99.8699C102.61 95.2499 108.83 92.9399 116.52 92.9399L116.53 92.9499ZM116.53 129.78C120.78 129.78 124.21 128.52 126.81 125.99C129.41 123.47 130.71 120.15 130.71 116.05C130.71 111.95 129.41 108.61 126.81 106.09C124.21 103.57 120.78 102.32 116.53 102.32C112.28 102.32 108.81 103.58 106.2 106.09C103.59 108.6 102.28 111.92 102.28 116.05C102.28 120.18 103.59 123.47 106.2 125.99C108.81 128.52 112.25 129.78 116.53 129.78Z"/>
        <path d="M184.72 130.3V138.55H150.4V93.5299H161.61V130.3H184.72Z"/>
        <path d="M214.89 92.9499C222.56 92.9499 228.77 95.2699 233.52 99.8899C238.27 104.52 240.64 109.91 240.64 116.05C240.64 122.19 238.23 127.68 233.42 132.26C228.61 136.84 222.43 139.12 214.89 139.12C207.35 139.12 201.05 136.84 196.26 132.29C191.47 127.74 189.07 122.32 189.07 116.05C189.07 109.78 191.45 104.49 196.21 99.8699C200.97 95.2499 207.19 92.9399 214.88 92.9399L214.89 92.9499ZM214.89 129.78C219.14 129.78 222.57 128.52 225.17 125.99C227.77 123.47 229.07 120.15 229.07 116.05C229.07 111.95 227.77 108.61 225.17 106.09C222.57 103.57 219.14 102.32 214.89 102.32C210.64 102.32 207.17 103.58 204.56 106.09C201.95 108.6 200.64 111.92 200.64 116.05C200.64 120.18 201.95 123.47 204.56 125.99C207.17 128.52 210.61 129.78 214.89 129.78Z"/>
        <path d="M279.76 93.5299V101.78H259.97V111.83H279.76V120.08H259.97V138.55H248.76V93.5299H279.76Z"/>
        <path d="M329.26 93.5299V101.78H312.95V138.55H301.74V101.78H285.43V93.5299H329.26Z"/>
    </g>
    <defs>
        <clipPath id="clip0_88_313">
            <rect width="329.26" height="139.13"/>
        </clipPath>
    </defs>
</svg>
