<svg id="map-pin" viewBox="0 0 49 61" fill="none" xmlns="http://www.w3.org/2000/svg">
    <path fill-rule="evenodd" clip-rule="evenodd" d="M27.3385 57.2613L27.3376 57.2622L27.3347 57.2651C26.394 58.1978 25.4473 59.1366 24.5007 60.0833C23.554 59.1366 22.6073 58.1978 21.6666 57.2651L21.6637 57.2622L21.6628 57.2613C10.8473 46.5364 0.833984 36.6069 0.833984 24.5833C0.833984 11.5126 11.4299 0.916626 24.5007 0.916626C37.5714 0.916626 48.1673 11.5126 48.1673 24.5833C48.1673 36.6069 38.154 46.5364 27.3385 57.2613ZM24.5007 33.4583C29.4022 33.4583 33.3756 29.4848 33.3756 24.5833C33.3756 19.6818 29.4022 15.7083 24.5007 15.7083C19.5991 15.7083 15.6257 19.6818 15.6257 24.5833C15.6257 29.4848 19.5991 33.4583 24.5007 33.4583Z" fill="#D59159"/>
</svg>