<svg id="search-zoom-white" viewBox="0 0 20 20" fill="none" xmlns="http://www.w3.org/2000/svg">
    <path d="M16.9578 14.9746C17.7182 14.9746 18.4352 15.2378 18.7767 15.8755C19.118 16.5129 18.9401 17.2552 18.5203 17.8872C18.0786 18.5521 17.4339 19.0494 16.6795 18.9484C15.9249 18.8473 15.4329 18.1976 15.1813 17.438V17.4372C14.9802 16.8281 15.0388 16.1993 15.3905 15.7111C15.742 15.2233 16.3179 14.9705 16.9578 14.9746ZM16.953 16.2246C16.6453 16.2219 16.4811 16.3355 16.4045 16.4419C16.3271 16.5494 16.2693 16.7461 16.3678 17.0449L16.4411 17.2378C16.6138 17.6382 16.7986 17.7027 16.8455 17.709C16.8997 17.7161 17.1466 17.6965 17.4795 17.1955C17.7679 16.761 17.7106 16.5323 17.6748 16.4655C17.6392 16.399 17.4807 16.2246 16.9578 16.2246H16.953ZM16.0415 9.1665C16.0415 5.36955 12.9635 2.2915 9.1665 2.2915C5.36955 2.2915 2.2915 5.36955 2.2915 9.1665C2.2915 12.9635 5.36955 16.0415 9.1665 16.0415C12.9635 16.0415 16.0415 12.9635 16.0415 9.1665ZM8.5415 11.2498V9.7915H7.08317C6.73799 9.7915 6.45817 9.51168 6.45817 9.1665C6.45817 8.82133 6.73799 8.5415 7.08317 8.5415H8.5415V7.08317C8.5415 6.73799 8.82133 6.45817 9.1665 6.45817C9.51168 6.45817 9.7915 6.73799 9.7915 7.08317V8.5415H11.2498C11.595 8.5415 11.8748 8.82133 11.8748 9.1665C11.8748 9.51168 11.595 9.7915 11.2498 9.7915H9.7915V11.2498C9.7915 11.595 9.51168 11.8748 9.1665 11.8748C8.82133 11.8748 8.5415 11.595 8.5415 11.2498ZM17.2915 9.1665C17.2915 13.6538 13.6538 17.2915 9.1665 17.2915C4.67919 17.2915 1.0415 13.6538 1.0415 9.1665C1.0415 4.67919 4.67919 1.0415 9.1665 1.0415C13.6538 1.0415 17.2915 4.67919 17.2915 9.1665Z" fill="#ffffff"/>
</svg>