<svg id="pin" viewBox="0 0 20 20" xmlns="http://www.w3.org/2000/svg">
    <path fill-rule="evenodd" clip-rule="evenodd" d="M10 6.04169C11.7259 6.04169 13.125 7.4408 13.125 9.16669C13.125 10.8926 11.7259 12.2917 10 12.2917C8.27411 12.2917 6.875 10.8926 6.875 9.16669C6.875 7.4408 8.27411 6.04169 10 6.04169ZM10 7.29169C8.96447 7.29169 8.125 8.13115 8.125 9.16669C8.125 10.2022 8.96447 11.0417 10 11.0417C11.0355 11.0417 11.875 10.2022 11.875 9.16669C11.875 8.13115 11.0355 7.29169 10 7.29169Z"/>
    <path fill-rule="evenodd" clip-rule="evenodd" d="M10 1.04169C14.4638 1.04169 18.125 4.19201 18.125 8.75002C18.125 12.2257 16.5703 14.7778 14.8047 16.4494C13.9243 17.2829 12.9869 17.9027 12.1525 18.3163C11.3388 18.7196 10.5589 18.9584 10 18.9584C9.4411 18.9584 8.6612 18.7196 7.84749 18.3163C7.01309 17.9027 6.07575 17.2829 5.19531 16.4494C3.42967 14.7778 1.875 12.2257 1.875 8.75002C1.875 4.19201 5.5362 1.04169 10 1.04169ZM10 2.29169C6.13047 2.29169 3.125 4.97469 3.125 8.75002C3.125 11.8174 4.48705 14.057 6.05469 15.5412C6.84082 16.2855 7.67449 16.8348 8.40251 17.1957C9.15124 17.5668 9.72561 17.7084 10 17.7084C10.2744 17.7084 10.8488 17.5668 11.5975 17.1957C12.3255 16.8348 13.1592 16.2855 13.9453 15.5412C15.5129 14.057 16.875 11.8174 16.875 8.75002C16.875 4.97469 13.8695 2.29169 10 2.29169Z"/>
</svg>