<svg id="plus" viewBox="0 0 24 24" xmlns="http://www.w3.org/2000/svg">
    <path d="M11.25 3.51472C11.25 3.1005 11.5857 2.7648 12 2.7648C12.4142 2.7648 12.7499 3.1005 12.7499 3.51472L12.7499 11.2501H20.4852C20.8995 11.2501 21.2352 11.5858 21.2352 12C21.2352 12.4142 20.8995 12.7499 20.4852 12.7499H12.7499L12.7499 20.4853C12.7499 20.8995 12.4142 21.2352 12 21.2352C11.5857 21.2352 11.25 20.8995 11.25 20.4853L11.25 12.7499L3.51468 12.7499C3.10047 12.7499 2.76476 12.4142 2.76476 12C2.76476 11.5858 3.10047 11.2501 3.51468 11.2501L11.25 11.2501L11.25 3.51472Z"/>
</svg>