<svg id="soc-tg" viewBox="0 0 24 24" xmlns="http://www.w3.org/2000/svg">
    <path fill-rule="evenodd" clip-rule="evenodd" d="M3.30615 10.8879C8.40641 8.62993 11.8074 7.14134 13.5091 6.42212C18.3677 4.36862 19.3773 4.0119 20.0354 4.00013C20.1801 3.99753 20.5037 4.03398 20.7133 4.20682C20.8903 4.35275 20.939 4.5499 20.9623 4.68826C20.9856 4.82663 21.0146 5.14183 20.9916 5.38811C20.7283 8.1992 19.589 15.021 19.0094 18.1694C18.7642 19.5017 18.2813 19.9484 17.8138 19.9921C16.7978 20.0871 16.0263 19.3098 15.0422 18.6543C13.5024 17.6287 12.6325 16.9902 11.1378 15.9893C9.4105 14.8327 10.5303 14.1969 11.5147 13.158C11.7723 12.8861 16.2488 8.74867 16.3354 8.37335C16.3463 8.32641 16.3563 8.15143 16.254 8.05904C16.1517 7.96664 16.0007 7.99824 15.8918 8.02337C15.7373 8.05898 13.2775 9.71112 8.51212 12.9798C7.81389 13.467 7.18145 13.7044 6.61481 13.6919C5.99014 13.6782 4.78851 13.333 3.89523 13.038C2.79958 12.6761 1.92878 12.4847 2.0046 11.8701C2.0441 11.55 2.47795 11.2226 3.30615 10.8879Z"/>
</svg>