<svg id="soc-wa" viewBox="0 0 24 24" xmlns="http://www.w3.org/2000/svg">
    <path d="M12 2C17.523 2 22 6.477 22 12C22 17.523 17.523 22 12 22C10.1782 22.0025 8.39071 21.5046 6.83203 20.5615L3.7998 21.4541C3.62586 21.5052 3.44132 21.5086 3.26562 21.4639C3.08979 21.419 2.92909 21.3275 2.80078 21.1992C2.67247 21.0709 2.58096 20.9102 2.53613 20.7344C2.49138 20.5587 2.49476 20.3741 2.5459 20.2002L3.43848 17.168C2.52548 15.66 2 13.89 2 12C2 6.477 6.477 2 12 2ZM9.4541 7.13086C9.33417 7.11771 9.21228 7.13565 9.10156 7.18359C8.18167 7.57765 7.38586 8.58806 7.42383 9.62695C7.44883 10.309 7.71629 12.2397 9.73828 14.2627C11.7613 16.2847 13.692 16.5521 14.374 16.5771C15.411 16.6151 16.4214 15.8233 16.8145 14.9043C16.8641 14.79 16.8817 14.6637 16.8662 14.54C16.8507 14.4165 16.8018 14.2996 16.7256 14.2012C16.1917 13.5193 15.4746 13.0245 14.7686 12.5371C14.7499 12.5242 14.7315 12.5109 14.7129 12.498C14.5617 12.3936 14.3757 12.3514 14.1943 12.3809C14.0131 12.4104 13.8505 12.5094 13.7402 12.6562L13.1396 13.5713C13.1081 13.6202 13.0594 13.6558 13.0029 13.6699C12.9463 13.684 12.8859 13.676 12.835 13.6475C12.428 13.4145 11.8352 13.0178 11.4092 12.5918C10.9832 12.1658 10.6113 11.5997 10.4023 11.2188C10.3765 11.1704 10.3685 11.114 10.3809 11.0605C10.3932 11.0072 10.4244 10.9599 10.4688 10.9277L11.3926 10.2422C11.5244 10.1276 11.6097 9.96822 11.6318 9.79492C11.654 9.62159 11.6115 9.44587 11.5127 9.30176C11.4687 9.23737 11.4245 9.1709 11.3789 9.10352C10.9604 8.48446 10.4687 7.75741 9.78613 7.25879C9.68849 7.18803 9.57397 7.14403 9.4541 7.13086Z"/>
</svg>