<svg id="soc-yt" viewBox="0 0 24 24" xmlns="http://www.w3.org/2000/svg">
    <path fill-rule="evenodd" clip-rule="evenodd" d="M2.46817 19.4977C2.04025 19.3662 1.6498 19.1322 1.32977 18.8155C1.00974 18.4988 0.76953 18.1087 0.629397 17.6781C-0.171359 15.4523 -0.40862 6.15852 1.13358 4.32382C1.64685 3.72698 2.37152 3.35951 3.1503 3.30119C7.28753 2.85004 20.07 2.91019 21.538 3.45158C21.9509 3.58743 22.3282 3.81629 22.6415 4.121C22.9548 4.42572 23.196 4.79839 23.3471 5.21109C24.222 7.51199 24.2517 15.8734 23.2285 18.0841C22.9571 18.6595 22.5027 19.1257 21.9384 19.4075C20.3962 20.1895 4.51455 20.1745 2.46817 19.4977ZM9.03734 15.1365L16.4517 11.2265L9.03734 7.28641V15.1365Z"/>
</svg>