<svg id="soc-wa" viewBox="0 0 24 24" xmlns="http://www.w3.org/2000/svg">
    <path d="M13.0718 19C4.87196 19 0.194878 13.7447 0 5H4.10743C4.24235 11.4184 7.27046 14.1371 9.66896 14.6977V5H13.5365V10.5355C15.9051 10.2973 18.3935 7.77477 19.233 5H23.1006C22.7842 6.43908 22.1537 7.80165 21.2483 9.0025C20.3429 10.2033 19.1823 11.2166 17.8389 11.979C19.3384 12.6756 20.6629 13.6615 21.7249 14.8717C22.7869 16.082 23.5624 17.489 24 19H19.7427C19.3498 17.6876 18.5513 16.5128 17.4473 15.6228C16.3433 14.7328 14.9829 14.1673 13.5365 13.997V19H13.0718Z"/>
</svg>