<svg id="strk_shapes" viewBox="0 0 32 32" fill="none" xmlns="http://www.w3.org/2000/svg">
    <path fill-rule="evenodd" clip-rule="evenodd" d="M7.7853 18.924L4.22397 21.4507C3.72397 21.8053 3.51464 22.4453 3.70797 23.0267L5.04664 27.0467C5.23464 27.616 5.76664 28 6.36664 28H10.8146C11.4146 28 11.9466 27.616 12.136 27.0467L13.4746 23.0267C13.668 22.4453 13.4586 21.8053 12.9586 21.4507L9.3973 18.924C8.9133 18.5813 8.26797 18.5813 7.7853 18.924Z" stroke-width="2"/>
    <path fill-rule="evenodd" clip-rule="evenodd" d="M5.59066 4.66663H11.5907C12.3267 4.66663 12.924 5.26396 12.924 5.99996V12C12.924 12.736 12.3267 13.3333 11.5907 13.3333H5.59066C4.85466 13.3333 4.25732 12.736 4.25732 12V5.99996C4.25732 5.26396 4.85466 4.66663 5.59066 4.66663Z" stroke-width="2" stroke-linecap="round" stroke-linejoin="round"/>
    <path fill-rule="evenodd" clip-rule="evenodd" d="M23.5104 18.6666V18.6666C20.9331 18.6666 18.8438 20.756 18.8438 23.3333V23.3333C18.8438 25.9106 20.9331 28 23.5104 28V28C26.0878 28 28.1771 25.9106 28.1771 23.3333V23.3333C28.1771 20.756 26.0878 18.6666 23.5104 18.6666Z" stroke-width="2" stroke-linecap="round" stroke-linejoin="round"/>
    <path fill-rule="evenodd" clip-rule="evenodd" d="M22.1401 5.42663L18.7441 10.8613C18.0707 11.9373 18.8454 13.3333 20.1134 13.3333H26.9067C28.1761 13.3333 28.9494 11.9373 28.2761 10.8613L24.8814 5.42663C24.2481 4.41329 22.7734 4.41329 22.1401 5.42663Z" stroke-width="2" stroke-linecap="round" stroke-linejoin="round"/>
</svg>