<svg id="strk_modul" viewBox="0 0 32 32" fill="none" xmlns="http://www.w3.org/2000/svg">
    <path d="M9.69067 4.976C10.992 6.27733 10.992 8.388 9.69067 9.69067C8.38933 10.9933 6.27867 10.992 4.976 9.69067C3.67467 8.38933 3.67467 6.27867 4.976 4.976C6.27867 3.67467 8.388 3.67467 9.69067 4.976" stroke-width="2" stroke-linecap="round" stroke-linejoin="round"/>
    <path d="M27.0242 22.3094C28.3255 23.6107 28.3255 25.7214 27.0242 27.0241C25.7228 28.3267 23.6122 28.3254 22.3095 27.0241C21.0068 25.7227 21.0082 23.6121 22.3095 22.3094C23.6108 21.0067 25.7215 21.0081 27.0242 22.3094" stroke-width="2" stroke-linecap="round" stroke-linejoin="round"/>
    <path d="M9.69067 22.3094C10.992 23.6107 10.992 25.7214 9.69067 27.0241C8.38933 28.3267 6.27867 28.3254 4.976 27.0241C3.67467 25.7227 3.67467 23.6121 4.976 22.3094C6.27733 21.0067 8.388 21.0081 9.69067 22.3094" stroke-width="2" stroke-linecap="round" stroke-linejoin="round"/>
    <path d="M27.0242 4.976C28.3255 6.27733 28.3255 8.388 27.0242 9.69067C25.7228 10.9933 23.6122 10.992 22.3095 9.69067C21.0068 8.38933 21.0082 6.27867 22.3095 4.976C23.6122 3.67467 25.7215 3.67467 27.0242 4.976" stroke-width="2" stroke-linecap="round" stroke-linejoin="round"/>
    <path d="M14.6665 25.2266C15.1025 25.2893 15.5465 25.3333 15.9998 25.3333C16.4532 25.3333 16.8972 25.2893 17.3332 25.2266" stroke-width="2" stroke-linecap="round" stroke-linejoin="round"/>
    <path d="M14.6665 6.77334C15.1025 6.71068 15.5465 6.66668 15.9998 6.66668C16.4532 6.66668 16.8972 6.71068 17.3332 6.77334" stroke-width="2" stroke-linecap="round" stroke-linejoin="round"/>
    <path d="M25.2266 17.3333C25.2893 16.8973 25.3333 16.4533 25.3333 16C25.3333 15.5466 25.2893 15.1026 25.2266 14.6666" stroke-width="2" stroke-linecap="round" stroke-linejoin="round"/>
    <path d="M6.77322 17.3333C6.71056 16.8973 6.66656 16.4533 6.66656 16C6.66656 15.5466 6.71056 15.1026 6.77322 14.6666" stroke-width="2" stroke-linecap="round" stroke-linejoin="round"/>
</svg>