<svg id="theme-light" viewBox="0 0 14 14" xmlns="http://www.w3.org/2000/svg">
    <path d="M7.87484 1.16663C7.87484 0.683377 7.48309 0.291626 6.99984 0.291626C6.51659 0.291626 6.12484 0.683377 6.12484 1.16663V1.21329C6.12484 1.69654 6.51659 2.08829 6.99984 2.08829C7.48309 2.08829 7.87484 1.69654 7.87484 1.21329V1.16663Z"/>
    <path d="M3.45356 2.21624C3.11185 1.87453 2.55783 1.87453 2.21612 2.21624C1.87441 2.55795 1.87441 3.11197 2.21612 3.45368L2.29195 3.52951C2.63366 3.87122 3.18768 3.87122 3.52939 3.52951C3.8711 3.1878 3.8711 2.63378 3.52939 2.29207L3.45356 2.21624Z"/>
    <path d="M11.7836 3.45368C12.1253 3.11197 12.1253 2.55795 11.7836 2.21624C11.4418 1.87453 10.8878 1.87453 10.5461 2.21624L10.4703 2.29208C10.1286 2.63378 10.1286 3.1878 10.4703 3.52951C10.812 3.87122 11.366 3.87122 11.7077 3.52951L11.7836 3.45368Z"/>
    <path d="M1.1665 6.12496C0.683255 6.12496 0.291504 6.51671 0.291504 6.99996C0.291504 7.48321 0.683255 7.87496 1.1665 7.87496H1.21317C1.69642 7.87496 2.08817 7.48321 2.08817 6.99996C2.08817 6.51671 1.69642 6.12496 1.21317 6.12496H1.1665Z"/>
    <path d="M12.7865 6.12496C12.3033 6.12496 11.9115 6.51671 11.9115 6.99996C11.9115 7.48321 12.3033 7.87496 12.7865 7.87496H12.8332C13.3164 7.87496 13.7082 7.48321 13.7082 6.99996C13.7082 6.51671 13.3164 6.12496 12.8332 6.12496H12.7865Z"/>
    <path d="M3.52939 11.7078C3.8711 11.3661 3.8711 10.8121 3.52939 10.4704C3.18768 10.1287 2.63366 10.1287 2.29195 10.4704L2.21612 10.5462C1.87441 10.8879 1.87441 11.442 2.21612 11.7837C2.55783 12.1254 3.11184 12.1254 3.45355 11.7837L3.52939 11.7078Z"/>
    <path d="M11.7077 10.4704C11.366 10.1287 10.812 10.1287 10.4703 10.4704C10.1286 10.8121 10.1286 11.3661 10.4703 11.7078L10.5461 11.7837C10.8878 12.1254 11.4418 12.1254 11.7836 11.7837C12.1253 11.442 12.1253 10.8879 11.7836 10.5462L11.7077 10.4704Z"/>
    <path d="M7.87484 12.7866C7.87484 12.3034 7.48309 11.9116 6.99984 11.9116C6.51659 11.9116 6.12484 12.3034 6.12484 12.7866V12.8333C6.12484 13.3165 6.51659 13.7083 6.99984 13.7083C7.48309 13.7083 7.87484 13.3165 7.87484 12.8333V12.7866Z"/>
    <path fill-rule="evenodd" clip-rule="evenodd" d="M6.99983 2.55203C4.54332 2.55203 2.55192 4.54343 2.55192 6.99994C2.55192 9.45646 4.54332 11.4479 6.99983 11.4479C9.45635 11.4479 11.4477 9.45646 11.4477 6.99994C11.4477 4.54343 9.45635 2.55203 6.99983 2.55203ZM3.86442 6.99994C3.86442 5.2683 5.26819 3.86453 6.99983 3.86453C8.73148 3.86453 10.1352 5.2683 10.1352 6.99994C10.1352 8.73159 8.73148 10.1354 6.99983 10.1354C5.26819 10.1354 3.86442 8.73159 3.86442 6.99994Z"/>
</svg>