<svg id="theme-dark" viewBox="0 0 14 14" xmlns="http://www.w3.org/2000/svg">
<path fill-rule="evenodd" clip-rule="evenodd" d="M6.27769 2.29786C6.45835 1.88302 6.59188 1.23466 6.12046 0.791393C5.66936 0.367219 5.03981 0.498209 4.6271 0.673072C2.07555 1.74939 0.316064 4.32777 0.529756 7.29153C0.763999 10.6367 3.59072 13.3347 6.96593 13.4831C9.34292 13.5862 11.4746 12.4777 12.7557 10.7252C12.908 10.5189 13.0318 10.2906 13.0893 10.0489C13.1478 9.80255 13.1439 9.50316 12.9771 9.2303C12.8096 8.95611 12.5431 8.81581 12.293 8.75749C12.0489 8.70055 11.7871 8.71122 11.5326 8.75756C11.1886 8.81908 10.834 8.84476 10.4628 8.8293C7.95264 8.72664 5.90494 6.62054 5.89477 4.16229L5.89475 4.15996C5.88965 3.49713 6.02705 2.87076 6.27725 2.29888L6.27769 2.29786ZM4.58228 4.16889C4.57637 3.37992 4.7277 2.62958 5.00447 1.94044C3.00988 2.84419 1.67165 4.88157 1.8389 7.19774L1.83901 7.19924C2.02514 9.862 4.29701 12.052 7.02319 12.1719C8.89188 12.2528 10.5635 11.4114 11.6013 10.0764C11.2155 10.1349 10.8193 10.1578 10.4092 10.1407C7.21479 10.0101 4.59607 7.34513 4.58228 4.16889Z"/>
</svg>