<svg width="24" height="24" viewBox="0 0 24 24" fill="none" xmlns="http://www.w3.org/2000/svg">
<path d="M11.2501 3.51472C11.2501 3.1005 11.5858 2.7648 12 2.7648C12.4142 2.7648 12.7499 3.1005 12.7499 3.51472L12.7499 11.2501H20.4853C20.8995 11.2501 21.2352 11.5858 21.2352 12C21.2352 12.4142 20.8995 12.7499 20.4853 12.7499H12.7499L12.7499 20.4853C12.7499 20.8995 12.4142 21.2352 12 21.2352C11.5858 21.2352 11.2501 20.8995 11.2501 20.4853L11.2501 12.7499L3.51471 12.7499C3.1005 12.7499 2.76479 12.4142 2.76479 12C2.76479 11.5858 3.1005 11.2501 3.51471 11.2501L11.2501 11.2501L11.2501 3.51472Z" fill="#243624"/>
</svg>
